<mxfile host="app.diagrams.net" modified="2023-05-26T19:58:04.783Z" agent="5.0 (X11)" etag="ccrUXAlmucVk45LU44sV" version="14.9.5" type="github">
  <diagram id="S-da9tcRd7GxEqH8rWGz" name="Page-1">
    <mxGraphModel dx="1265" dy="1726" grid="1" gridSize="10" guides="1" tooltips="1" connect="1" arrows="1" fold="1" page="1" pageScale="1" pageWidth="600" pageHeight="400" math="0" shadow="0">
      <root>
        <mxCell id="0" />
        <mxCell id="1" parent="0" />
        <mxCell id="uELqlFOJdH6AGBx7nL-s-4" style="edgeStyle=orthogonalEdgeStyle;orthogonalLoop=1;jettySize=auto;html=1;exitX=0;exitY=0.5;exitDx=0;exitDy=0;curved=1;strokeWidth=3;fontSize=16;" edge="1" parent="1" source="uELqlFOJdH6AGBx7nL-s-1" target="uELqlFOJdH6AGBx7nL-s-2">
          <mxGeometry relative="1" as="geometry" />
        </mxCell>
        <mxCell id="uELqlFOJdH6AGBx7nL-s-8" style="edgeStyle=orthogonalEdgeStyle;curved=1;orthogonalLoop=1;jettySize=auto;html=1;strokeWidth=3;entryX=0.5;entryY=1;entryDx=0;entryDy=0;exitX=1;exitY=0.5;exitDx=0;exitDy=0;" edge="1" parent="1" source="uELqlFOJdH6AGBx7nL-s-1" target="uELqlFOJdH6AGBx7nL-s-6">
          <mxGeometry relative="1" as="geometry">
            <mxPoint x="355" y="530" as="targetPoint" />
          </mxGeometry>
        </mxCell>
        <mxCell id="uELqlFOJdH6AGBx7nL-s-18" value="&lt;div style=&quot;font-size: 16px;&quot;&gt;Create in lower store&lt;/div&gt;" style="edgeLabel;html=1;align=center;verticalAlign=middle;resizable=0;points=[];fontSize=16;labelBackgroundColor=none;" vertex="1" connectable="0" parent="uELqlFOJdH6AGBx7nL-s-8">
          <mxGeometry x="0.168" y="8" relative="1" as="geometry">
            <mxPoint x="88" y="3" as="offset" />
          </mxGeometry>
        </mxCell>
        <mxCell id="uELqlFOJdH6AGBx7nL-s-1" value="&lt;div style=&quot;font-size: 16px;&quot;&gt;Absent Store Object&lt;/div&gt;" style="rounded=0;whiteSpace=wrap;html=1;fillColor=#a20025;fontColor=#ffffff;strokeColor=none;fontSize=16;" vertex="1" parent="1">
          <mxGeometry x="160" y="560" width="160" height="80" as="geometry" />
        </mxCell>
        <mxCell id="uELqlFOJdH6AGBx7nL-s-12" style="edgeStyle=orthogonalEdgeStyle;curved=1;orthogonalLoop=1;jettySize=auto;html=1;strokeWidth=3;fontSize=16;entryX=0;entryY=0.5;entryDx=0;entryDy=0;exitX=0.25;exitY=0;exitDx=0;exitDy=0;" edge="1" parent="1" source="uELqlFOJdH6AGBx7nL-s-2" target="uELqlFOJdH6AGBx7nL-s-11">
          <mxGeometry relative="1" as="geometry">
            <mxPoint x="160" y="260" as="targetPoint" />
          </mxGeometry>
        </mxCell>
        <mxCell id="uELqlFOJdH6AGBx7nL-s-22" value="Create in lower store after&lt;br&gt;&lt;div&gt;created in upper store&lt;/div&gt;" style="edgeLabel;html=1;align=center;verticalAlign=middle;resizable=0;points=[];fontSize=16;fontColor=#000000;" vertex="1" connectable="0" parent="uELqlFOJdH6AGBx7nL-s-12">
          <mxGeometry x="-0.1826" y="-12" relative="1" as="geometry">
            <mxPoint x="-104" y="-32" as="offset" />
          </mxGeometry>
        </mxCell>
        <mxCell id="uELqlFOJdH6AGBx7nL-s-2" value="Upper layer present&lt;br style=&quot;font-size: 16px;&quot;&gt;&lt;div style=&quot;font-size: 16px;&quot;&gt;Overlay DB present&lt;/div&gt;" style="rounded=0;whiteSpace=wrap;html=1;fillColor=#1ba1e2;fontColor=#ffffff;strokeColor=none;fontSize=16;" vertex="1" parent="1">
          <mxGeometry x="-40" y="360" width="160" height="80" as="geometry" />
        </mxCell>
        <mxCell id="uELqlFOJdH6AGBx7nL-s-10" value="Discover in overlay store" style="edgeStyle=orthogonalEdgeStyle;curved=1;orthogonalLoop=1;jettySize=auto;html=1;exitX=0.5;exitY=0;exitDx=0;exitDy=0;strokeWidth=3;labelBackgroundColor=none;fontSize=16;" edge="1" parent="1" source="uELqlFOJdH6AGBx7nL-s-6" target="uELqlFOJdH6AGBx7nL-s-9">
          <mxGeometry y="-100" relative="1" as="geometry">
            <mxPoint as="offset" />
          </mxGeometry>
        </mxCell>
        <mxCell id="uELqlFOJdH6AGBx7nL-s-6" value="Lower layer present&lt;br style=&quot;font-size: 16px;&quot;&gt;Lower layer metadata" style="rounded=0;whiteSpace=wrap;html=1;fillColor=#008a00;fontColor=#ffffff;strokeColor=none;fontSize=16;" vertex="1" parent="1">
          <mxGeometry x="280" y="440" width="200" height="80" as="geometry" />
        </mxCell>
        <mxCell id="uELqlFOJdH6AGBx7nL-s-13" style="edgeStyle=orthogonalEdgeStyle;curved=1;orthogonalLoop=1;jettySize=auto;html=1;entryX=0.75;entryY=1;entryDx=0;entryDy=0;strokeWidth=3;fontSize=16;dashed=1;" edge="1" parent="1" source="uELqlFOJdH6AGBx7nL-s-9" target="uELqlFOJdH6AGBx7nL-s-11">
          <mxGeometry relative="1" as="geometry" />
        </mxCell>
        <mxCell id="uELqlFOJdH6AGBx7nL-s-20" value="Shouldn&#39;t happen&lt;br&gt;Overlay store will refuse&lt;br&gt;to create redunant copy" style="edgeLabel;html=1;align=center;verticalAlign=middle;resizable=0;points=[];fontSize=16;fontColor=#000000;" vertex="1" connectable="0" parent="uELqlFOJdH6AGBx7nL-s-13">
          <mxGeometry x="-0.2471" y="4" relative="1" as="geometry">
            <mxPoint x="94" y="-34" as="offset" />
          </mxGeometry>
        </mxCell>
        <mxCell id="uELqlFOJdH6AGBx7nL-s-24" style="edgeStyle=orthogonalEdgeStyle;curved=1;orthogonalLoop=1;jettySize=auto;html=1;exitX=0;exitY=0;exitDx=0;exitDy=0;dashed=1;labelBackgroundColor=none;fontSize=16;fontColor=#000000;strokeWidth=3;" edge="1" parent="1" source="uELqlFOJdH6AGBx7nL-s-9">
          <mxGeometry relative="1" as="geometry">
            <mxPoint x="290" y="270" as="targetPoint" />
          </mxGeometry>
        </mxCell>
        <mxCell id="uELqlFOJdH6AGBx7nL-s-9" value="Lower layer present&lt;br style=&quot;font-size: 16px;&quot;&gt;Lower layer metadata&lt;br style=&quot;font-size: 16px;&quot;&gt;Overlay DB metadata" style="rounded=0;whiteSpace=wrap;html=1;fillColor=#008a00;fontColor=#ffffff;strokeColor=none;fontSize=16;" vertex="1" parent="1">
          <mxGeometry x="280" y="280" width="200" height="80" as="geometry" />
        </mxCell>
        <mxCell id="uELqlFOJdH6AGBx7nL-s-27" style="edgeStyle=orthogonalEdgeStyle;curved=1;orthogonalLoop=1;jettySize=auto;html=1;exitX=0.25;exitY=1;exitDx=0;exitDy=0;entryX=0.75;entryY=0;entryDx=0;entryDy=0;labelBackgroundColor=none;fontSize=16;fontColor=#000000;strokeWidth=3;dashed=1;dashPattern=1 1;" edge="1" parent="1" source="uELqlFOJdH6AGBx7nL-s-11" target="uELqlFOJdH6AGBx7nL-s-2">
          <mxGeometry relative="1" as="geometry" />
        </mxCell>
        <mxCell id="uELqlFOJdH6AGBx7nL-s-30" value="&lt;div&gt;Manual&lt;/div&gt;&lt;div&gt;deduplication&lt;/div&gt;" style="edgeLabel;html=1;align=center;verticalAlign=middle;resizable=0;points=[];fontSize=16;fontColor=#000000;labelBackgroundColor=none;" vertex="1" connectable="0" parent="uELqlFOJdH6AGBx7nL-s-27">
          <mxGeometry x="-0.2737" y="-4" relative="1" as="geometry">
            <mxPoint x="-2" y="44" as="offset" />
          </mxGeometry>
        </mxCell>
        <mxCell id="uELqlFOJdH6AGBx7nL-s-11" value="Both layers present&lt;br style=&quot;font-size: 16px;&quot;&gt;Lower layer metadata&lt;br style=&quot;font-size: 16px;&quot;&gt;Overlay DB metadata" style="rounded=0;whiteSpace=wrap;html=1;gradientDirection=east;fillColor=#1BA1E2;strokeColor=none;gradientColor=#008A00;fontColor=#FFFFFF;fontSize=16;" vertex="1" parent="1">
          <mxGeometry x="140" y="120" width="200" height="80" as="geometry" />
        </mxCell>
        <mxCell id="uELqlFOJdH6AGBx7nL-s-21" value="&lt;div&gt;Create in overlay store&lt;/div&gt;&lt;div&gt;&lt;br&gt;&lt;/div&gt;" style="text;html=1;align=center;verticalAlign=middle;resizable=0;points=[];autosize=1;strokeColor=none;fontSize=16;fontColor=#000000;" vertex="1" parent="1">
          <mxGeometry x="-60" y="520" width="170" height="40" as="geometry" />
        </mxCell>
      </root>
    </mxGraphModel>
  </diagram>
</mxfile>
